{
    "asset": {
        "generator": "FBX2glTF v0.9.7",
        "version": "2.0"
    },
    "scene": 0,
    "buffers": [
        {
            "byteLength": 26464,
            "uri": "buffer.bin"
        }
    ],
    "bufferViews": [
        {
            "buffer": 0,
            "byteLength": 3222,
            "byteOffset": 0,
            "target": 34963
        },
        {
            "buffer": 0,
            "byteLength": 4980,
            "byteOffset": 3224,
            "target": 34962
        },
        {
            "buffer": 0,
            "byteLength": 4980,
            "byteOffset": 8204,
            "target": 34962
        },
        {
            "buffer": 0,
            "byteLength": 6640,
            "byteOffset": 13184,
            "target": 34962
        },
        {
            "buffer": 0,
            "byteLength": 3320,
            "byteOffset": 19824,
            "target": 34962
        },
        {
            "buffer": 0,
            "byteLength": 3320,
            "byteOffset": 23144,
            "target": 34962
        }
    ],
    "scenes": [
        {
            "name": "Root Scene",
            "nodes": [
                0
            ]
        }
    ],
    "accessors": [
        {
            "componentType": 5123,
            "type": "SCALAR",
            "count": 1611,
            "bufferView": 0,
            "byteOffset": 0
        },
        {
            "componentType": 5126,
            "type": "VEC3",
            "count": 415,
            "bufferView": 1,
            "byteOffset": 0,
            "min": [
                -0.172876864671707,
                1.06440472602844,
                -0.146536305546761
            ],
            "max": [
                0.172876864671707,
                1.34067177772522,
                0.138297215104103
            ]
        },
        {
            "componentType": 5126,
            "type": "VEC3",
            "count": 415,
            "bufferView": 2,
            "byteOffset": 0
        },
        {
            "componentType": 5126,
            "type": "VEC4",
            "count": 415,
            "bufferView": 3,
            "byteOffset": 0
        },
        {
            "componentType": 5126,
            "type": "VEC2",
            "count": 415,
            "bufferView": 4,
            "byteOffset": 0
        },
        {
            "componentType": 5126,
            "type": "VEC2",
            "count": 415,
            "bufferView": 5,
            "byteOffset": 0
        }
    ],
    "images": [
        {
            "name": "F_Lower_duanqun_01_he.png",
            "uri": "F_Lower_duanqun_01_he.png"
        }
    ],
    "samplers": [
        {}
    ],
    "textures": [
        {
            "name": "Map #2",
            "sampler": 0,
            "source": 0
        }
    ],
    "materials": [
        {
            "name": "F_Lower_duanqun_01_he",
            "alphaMode": "OPAQUE",
            "extras": {
                "fromFBX": {
                    "shadingModel": "Phong",
                    "isTruePBR": false
                }
            },
            "pbrMetallicRoughness": {
                "baseColorTexture": {
                    "index": 0,
                    "texCoord": 0
                },
                "baseColorFactor": [
                    1.0,
                    1.0,
                    1.0,
                    1.0
                ],
                "metallicFactor": 0.400000005960464,
                "roughnessFactor": 0.70710676908493
            }
        }
    ],
    "meshes": [
        {
            "name": "F_Lower_duanqun_01_he",
            "primitives": [
                {
                    "material": 0,
                    "mode": 4,
                    "attributes": {
                        "NORMAL": 2,
                        "POSITION": 1,
                        "TANGENT": 3,
                        "TEXCOORD_0": 4,
                        "TEXCOORD_1": 5
                    },
                    "indices": 0
                }
            ]
        }
    ],
    "nodes": [
        {
            "name": "RootNode",
            "translation": [
                0.0,
                0.0,
                0.0
            ],
            "rotation": [
                0.0,
                0.0,
                0.0,
                1.0
            ],
            "scale": [
                1.0,
                1.0,
                1.0
            ],
            "children": [
                1
            ]
        },
        {
            "name": "F_Lower_duanqun_01_he",
            "translation": [
                0.0,
                0.0,
                1.11023004123467e-08
            ],
            "rotation": [
                2.1855694143369e-08,
                0.0,
                0.0,
                1.0
            ],
            "scale": [
                1.0,
                1.0,
                1.0
            ],
            "mesh": 0
        }
    ]
}